<svg width="32" height="32" viewBox="0 0 16 16" fill="none" xmlns="http://www.w3.org/2000/svg">
  <path d="M8 0.317C3.588 0.317 0 4.045 0 7.48c0 3.285 2.09 6.076 4.995 7.06 0.365 0.066 0.498-0.158 0.498-0.352 0-0.173-0.008-0.75-0.012-1.362-2.035 0.443-2.549-0.979-2.549-0.979C2.713 11.642 2.3 11.2 2.3 11.2c-0.688-0.747 0.053-0.733 0.053-0.733 0.759 0.054 1.158 0.78 1.158 0.78 0.674 1.156 1.769 0.822 2.204 0.629 0.069-0.497 0.264-0.832 0.479-1.024-1.677-0.191-3.44-0.839-3.44-3.725 0-0.827 0.294-1.505 0.778-2.033-0.079-0.192-0.338-0.961 0.075-2.001 0 0 0.634-0.203 2.075 0.775 0.601-0.167 1.244-0.251 1.884-0.254 0.639 0.003 1.283 0.086 1.885 0.254 1.442-0.978 2.075-0.775 2.075-0.775 0.413 1.04 0.156 1.809 0.077 2.001 0.485 0.528 0.777 1.206 0.777 2.033 0 2.891-1.765 3.532-3.449 3.721 0.271 0.233 0.515 0.692 0.515 1.394 0 1.007-0.009 1.814-0.009 2.063 0 0.194 0.131 0.42 0.503 0.349C13.91 13.556 16 10.765 16 7.48 16 4.045 12.412 0.317 8 0.317z" fill="white"/>
</svg>
